<svg xmlns="http://www.w3.org/2000/svg" xmlns:xlink="http://www.w3.org/1999/xlink" version="1.1" x="0px" y="0px" viewBox="0 0 100 100" style="enable-background:new 0 0 100 100;" xml:space="preserve"><g><circle cx="37.499" cy="55.978" r="3.864"/><path d="M47.07,56.405l-1.843-3.975c-1.042-2.246-2.994-3.954-5.358-4.687c-2.381-0.738-4.979-0.428-7.13,0.848   c-2.939,1.742-5.689,3.946-8.655,6.937c-0.784,0.791-1.543,1.638-2.258,2.519c-0.522,0.643-0.424,1.588,0.219,2.109   c0.644,0.523,1.587,0.424,2.11-0.219c0.653-0.804,1.346-1.577,2.06-2.297c2.781-2.804,5.34-4.859,8.055-6.469   c1.423-0.844,3.14-1.047,4.711-0.563c1.577,0.489,2.829,1.584,3.524,3.083l1.843,3.975c0.569,1.227,0.105,2.688-1.05,3.325   c-0.236,0.129-0.476,0.266-0.717,0.406c-0.717,0.415-0.96,1.333-0.544,2.05c0.278,0.479,0.782,0.747,1.299,0.747   c0.255,0,0.515-0.065,0.751-0.203c0.219-0.127,0.436-0.25,0.655-0.37C47.276,62.224,48.299,59.054,47.07,56.405z"/><circle cx="50" cy="71.752" r="4.697"/><path d="M91.376,57.239c-3.019-6.225-5.404-10.869-7.268-14.151c1.66-2.661,2.935-5.521,3.795-8.512   c0.173-0.597,4.183-14.657-1.224-17.861c-0.552-0.332-1.183-0.494-1.928-0.494c-0.858,0-1.86,0.21-3.268,0.506   c-2.688,0.57-5.05,1.563-9.031,3.796c-1.627,0.916-3.303,1.924-4.992,3.002c-3.325-1.961-7.205-3.302-11.314-3.971   c-0.117-0.033-0.238-0.055-0.364-0.058c-1.821-0.277-3.68-0.437-5.561-0.437c-6.313,0-12.545,1.58-17.664,4.465   c-1.623-1.034-3.271-2.021-5.014-3.003c-3.979-2.231-6.342-3.225-9.05-3.8c-1.387-0.291-2.389-0.501-3.247-0.501   c-0.745,0-1.375,0.162-1.918,0.489c-5.417,3.209-1.407,17.27-1.234,17.862c0.86,2.994,2.136,5.854,3.796,8.516   c-1.863,3.282-4.249,7.927-7.27,14.155c-1.414,2.938-2.407,6.353-3.391,9.73c-0.505,1.736-0.175,3.561,0.908,5.003   c1.21,1.611,3.115,2.468,5.17,2.258c1.931-0.196,3.547-0.284,5.24-0.284c1.404,0,2.832,0.063,4.369,0.191l2.168,0.177   c5.029,0.409,6.641,0.54,11.281,1.445c1.903,1.617,4.463,3.586,7.732,5.038c0.986,0.435,1.951,0.814,2.867,1.131   c1.627,0.562,3.321,0.847,5.036,0.847s3.409-0.285,5.035-0.847c0.917-0.316,1.881-0.696,2.871-1.133   c3.265-1.45,5.825-3.419,7.728-5.036c4.64-0.905,6.251-1.036,11.281-1.445l2.17-0.177c1.535-0.129,2.963-0.191,4.367-0.191   c1.693,0,3.309,0.088,5.239,0.284c2.059,0.209,3.96-0.646,5.17-2.259c1.083-1.442,1.413-3.266,0.885-5.078   C93.786,63.596,92.792,60.182,91.376,57.239z M91.462,70.175c-0.578,0.771-1.486,1.175-2.467,1.075   c-1.16-0.118-2.24-0.197-3.291-0.246c-0.35-0.682-0.706-1.409-1.084-2.189c-1.546-3.186-3.469-7.15-6.59-10.945   c-0.527-0.64-1.473-0.731-2.111-0.205c-0.64,0.526-0.732,1.472-0.206,2.111c2.895,3.519,4.732,7.306,6.208,10.349   c0.14,0.289,0.273,0.561,0.409,0.838c-1.129,0.026-2.273,0.088-3.493,0.19l-2.164,0.178c-4.303,0.349-6.231,0.508-9.716,1.134   c-0.807-1.966-2.041-4.585-4.497-7.206c-1.419-1.516-3.301-2.91-5.754-4.264c-1.159-0.64-1.622-2.099-1.054-3.323l1.844-3.977   c0.687-1.481,1.976-2.61,3.535-3.095c1.577-0.491,3.224-0.299,4.643,0.538c2.516,1.485,4.871,3.33,7.411,5.808   c0.594,0.577,1.542,0.565,2.122-0.027c0.578-0.593,0.566-1.543-0.027-2.121c-2.717-2.648-5.253-4.633-7.98-6.243   c-2.127-1.255-4.699-1.554-7.059-0.819c-2.367,0.736-4.322,2.449-5.365,4.698l-1.844,3.977c-1.228,2.647-0.206,5.815,2.327,7.212   c2.143,1.182,3.83,2.423,5.014,3.688c1.959,2.091,3.012,4.171,3.745,5.9c-0.011,0.009-0.024,0.014-0.034,0.023   c-1.775,1.528-4.208,3.458-7.288,4.825c-0.91,0.401-1.797,0.752-2.636,1.041c-2.622,0.906-5.49,0.906-8.113,0   c-0.838-0.289-1.726-0.64-2.632-1.039c-2.947-1.309-5.293-3.126-7.045-4.619c0.043-0.119,0.085-0.227,0.129-0.349   c0.596-1.677,1.271-3.578,3.336-5.783c0.342-0.365,0.729-0.731,1.148-1.089c0.631-0.536,0.708-1.483,0.171-2.114   c-0.537-0.631-1.483-0.707-2.114-0.171c-0.506,0.431-0.976,0.876-1.395,1.324c-2.492,2.661-3.348,5.07-3.973,6.829   c-0.055,0.155-0.109,0.294-0.163,0.442c-3.719-0.682-5.627-0.838-10.077-1.199l-2.162-0.178c-1.219-0.102-2.369-0.152-3.502-0.177   c0.137-0.28,0.272-0.555,0.413-0.847c1.04-2.144,2.219-4.573,3.798-7.028c0.448-0.697,0.247-1.625-0.45-2.073   c-0.698-0.446-1.625-0.246-2.073,0.45c-1.676,2.607-2.897,5.123-3.974,7.343c-0.378,0.779-0.734,1.505-1.084,2.186   c-1.049,0.048-2.126,0.125-3.29,0.244c-0.978,0.099-1.888-0.304-2.466-1.074c-0.51-0.681-0.666-1.542-0.404-2.44   c0.343-1.179,0.698-2.366,1.065-3.54h1.405c0.829,0,1.5-0.672,1.5-1.5s-0.671-1.5-1.5-1.5H10.22   c0.272-0.729,0.563-1.429,0.869-2.104h2.034c0.829,0,1.5-0.672,1.5-1.5s-0.671-1.5-1.5-1.5h-0.6   c2.664-5.422,4.773-9.46,6.421-12.293c0.287-0.493,0.269-1.106-0.046-1.582c-1.738-2.626-3.057-5.476-3.919-8.476   c-1.882-6.483-1.939-13.371-0.108-14.455c0.029-0.018,0.106-0.064,0.379-0.064c0.547,0,1.421,0.184,2.645,0.439   c2.022,0.43,4.01,1.137,8.183,3.478c1.965,1.105,3.806,2.219,5.627,3.403c0.481,0.315,1.102,0.324,1.595,0.026   c4.351-2.634,9.695-4.181,15.205-4.452v7.043c0,0.828,0.671,1.5,1.5,1.5s1.5-0.672,1.5-1.5v-7.057   c0.923,0.034,1.838,0.1,2.743,0.207v1.622c0,0.828,0.671,1.5,1.5,1.5s1.5-0.672,1.5-1.5v-1.129c3.456,0.737,6.682,2.005,9.43,3.759   c0.496,0.316,1.131,0.313,1.625-0.007c1.905-1.238,3.798-2.388,5.624-3.415c4.174-2.342,6.162-3.049,8.198-3.48   c1.21-0.254,2.084-0.438,2.631-0.438c0.273,0,0.35,0.047,0.389,0.069c1.821,1.079,1.764,7.967-0.119,14.454   c-0.862,2.996-2.18,5.846-3.918,8.472c-0.315,0.476-0.333,1.089-0.046,1.582c1.888,3.246,4.38,8.071,7.618,14.746   c1.306,2.714,2.264,6.007,3.213,9.268C92.127,68.634,91.972,69.495,91.462,70.175z"/><path d="M84.267,54.115c-0.857-1.711-1.646-3.253-2.373-4.637c-0.385-0.733-1.293-1.018-2.025-0.631   c-0.733,0.386-1.016,1.292-0.631,2.025c0.719,1.368,1.5,2.895,2.347,4.586c0.263,0.525,0.792,0.828,1.342,0.828   c0.226,0,0.455-0.051,0.671-0.159C84.338,55.757,84.638,54.856,84.267,54.115z"/><path d="M86.254,58.139c-0.363-0.744-1.263-1.052-2.006-0.689c-0.745,0.363-1.053,1.262-0.689,2.006l0.694,1.43   c0.256,0.541,0.795,0.857,1.356,0.857c0.215,0,0.434-0.046,0.641-0.145c0.749-0.354,1.068-1.249,0.713-1.998L86.254,58.139z"/><circle cx="62.501" cy="55.978" r="3.864"/><path d="M22.647,39.497l6.806-8.785c0.457-0.591,0.411-1.428-0.109-1.964c-2.854-2.941-6.385-5.052-11.115-6.644   c-0.39-0.13-0.818-0.097-1.181,0.097c-0.364,0.193-0.632,0.527-0.743,0.924c-0.359,1.294-0.349,3.404,0.029,5.792   c0.129,0.818,0.894,1.375,1.716,1.247c0.818-0.129,1.376-0.897,1.247-1.716c-0.18-1.137-0.25-2.096-0.254-2.854   c2.908,1.151,5.251,2.563,7.216,4.342l-4.637,5.986c-0.524-1.041-0.997-2.248-1.426-3.645l-0.096-0.316   c-0.233-0.794-1.066-1.248-1.862-1.017c-0.795,0.233-1.25,1.067-1.016,1.862l0.106,0.353c0.799,2.592,1.75,4.648,2.91,6.285   c0.275,0.388,0.717,0.622,1.192,0.633c0.011,0,0.021,0,0.032,0C21.924,40.078,22.362,39.864,22.647,39.497z"/><path d="M79.388,39.445c1.16-1.637,2.112-3.692,2.911-6.285c1.384-4.494,1.51-8.278,1.021-10.036   c-0.11-0.396-0.379-0.73-0.743-0.923c-0.365-0.193-0.791-0.227-1.181-0.097c-1.359,0.457-2.585,0.944-3.748,1.488   c-0.75,0.352-1.074,1.244-0.722,1.994c0.351,0.75,1.241,1.073,1.995,0.723c0.535-0.25,1.085-0.487,1.661-0.716   c-0.008,1.557-0.295,3.906-1.15,6.684c-0.43,1.396-0.902,2.604-1.427,3.646l-4.637-5.985c0.715-0.646,1.482-1.247,2.292-1.794   c0.687-0.463,0.868-1.396,0.404-2.082s-1.396-0.869-2.082-0.404c-1.347,0.908-2.592,1.948-3.701,3.091   c-0.52,0.536-0.566,1.373-0.109,1.964l6.805,8.785c0.285,0.367,0.723,0.581,1.186,0.581c0.011,0,0.021,0,0.032,0   C78.671,40.067,79.114,39.833,79.388,39.445z"/></g></svg>
